# Blender 3.1.0
# www.blender.org
mtllib White_Brick.mtl
o White_Break
v 0.118177 0.081180 -0.060000
v 0.118177 0.088003 -0.053177
v 0.125000 0.081180 -0.053177
v 0.118177 0.086004 -0.058002
v 0.122116 0.085119 -0.057116
v 0.123002 0.086004 -0.053177
v 0.123002 0.081180 -0.058002
v 0.118177 0.000003 -0.053177
v 0.118177 0.006826 -0.060000
v 0.125000 0.006826 -0.053177
v 0.118177 0.002001 -0.058002
v 0.122116 0.002887 -0.057116
v 0.123002 0.006826 -0.058002
v 0.123002 0.002001 -0.053177
v 0.125000 0.081180 0.053177
v 0.118177 0.088003 0.053177
v 0.118177 0.081180 0.060000
v 0.123002 0.086004 0.053177
v 0.122116 0.085119 0.057116
v 0.118177 0.086004 0.058002
v 0.123002 0.081180 0.058002
v 0.125000 0.006826 0.053177
v 0.118177 0.006826 0.060000
v 0.118177 0.000003 0.053177
v 0.123002 0.006826 0.058002
v 0.122116 0.002887 0.057116
v 0.118177 0.002001 0.058002
v 0.123002 0.002001 0.053177
v -0.118177 0.081180 -0.060000
v -0.125000 0.081180 -0.053177
v -0.118177 0.088003 -0.053177
v -0.123002 0.081180 -0.058002
v -0.122116 0.085119 -0.057116
v -0.123002 0.086004 -0.053177
v -0.118177 0.086004 -0.058002
v -0.125000 0.006826 -0.053177
v -0.118177 0.006826 -0.060000
v -0.118177 0.000003 -0.053177
v -0.123002 0.006826 -0.058002
v -0.122116 0.002887 -0.057116
v -0.118177 0.002001 -0.058002
v -0.123002 0.002001 -0.053177
v -0.125000 0.081180 0.053177
v -0.118177 0.081180 0.060000
v -0.118177 0.088003 0.053177
v -0.123002 0.081180 0.058002
v -0.122116 0.085119 0.057116
v -0.118177 0.086004 0.058002
v -0.123002 0.086004 0.053177
v -0.118177 0.000003 0.053177
v -0.118177 0.006826 0.060000
v -0.125000 0.006826 0.053177
v -0.118177 0.002001 0.058002
v -0.122116 0.002887 0.057116
v -0.123002 0.006826 0.058002
v -0.123002 0.002001 0.053177
vn -0.1794 -0.9673 -0.1794
vn 0.1794 -0.9673 -0.1794
vn 0.1794 -0.9673 0.1794
vn -0.1794 -0.9673 0.1794
vn -0.9673 -0.1794 0.1794
vn -0.9673 0.1794 0.1794
vn -0.9673 0.1794 -0.1794
vn -0.9673 -0.1794 -0.1794
vn 0.1794 -0.1794 0.9673
vn 0.1794 0.1794 0.9673
vn -0.1794 0.1794 0.9673
vn -0.1794 -0.1794 0.9673
vn 0.1794 0.9673 -0.1794
vn -0.1794 0.9673 -0.1794
vn -0.1794 0.9673 0.1794
vn 0.1794 0.9673 0.1794
vn 0.9673 -0.1794 -0.1794
vn 0.9673 0.1794 -0.1794
vn 0.9673 0.1794 0.1794
vn 0.9673 -0.1794 0.1794
vn 0.1794 0.1794 -0.9673
vn 0.1726 0.6965 -0.6965
vn 0.5773 0.5774 -0.5774
vn 0.6965 0.1726 -0.6965
vn 0.6965 0.6965 -0.1726
vn 0.1726 -0.6965 -0.6965
vn 0.5773 -0.5774 -0.5774
vn 0.6965 -0.6965 -0.1726
vn 0.1794 -0.1794 -0.9673
vn 0.6965 -0.1726 -0.6965
vn 0.6965 0.6965 0.1726
vn 0.5773 0.5774 0.5774
vn 0.6965 0.1726 0.6965
vn 0.1726 0.6965 0.6965
vn 0.6965 -0.1726 0.6965
vn 0.5773 -0.5774 0.5774
vn 0.6965 -0.6965 0.1726
vn 0.1726 -0.6965 0.6965
vn -0.1794 0.1794 -0.9673
vn -0.6965 0.1726 -0.6965
vn -0.5773 0.5774 -0.5774
vn -0.1726 0.6965 -0.6965
vn -0.6965 0.6965 -0.1726
vn -0.6965 -0.1726 -0.6965
vn -0.5773 -0.5774 -0.5774
vn -0.6965 -0.6965 -0.1726
vn -0.1794 -0.1794 -0.9673
vn -0.1726 -0.6965 -0.6965
vn -0.6965 0.1726 0.6965
vn -0.5773 0.5774 0.5774
vn -0.6965 0.6965 0.1726
vn -0.1726 0.6965 0.6965
vn -0.1726 -0.6965 0.6965
vn -0.5773 -0.5774 0.5774
vn -0.6965 -0.6965 0.1726
vn -0.6965 -0.1726 0.6965
vt 0.982636 0.580487
vt 0.017364 0.580487
vt 0.194515 0.615893
vt 0.005869 0.580487
vt 0.994131 0.580487
vt 0.992021 0.589873
vt 0.007978 0.589873
vt 0.203901 0.605409
vt 0.017364 0.591983
vt 0.206010 0.615022
vt 0.194515 0.603721
vt 0.982636 0.591983
vt 0.305485 0.017364
vt 0.805485 0.580487
vt 0.017364 0.615893
vt 0.293990 0.017364
vt 0.793990 0.580487
vt 0.296099 0.007978
vt 0.796099 0.589873
vt 0.007978 0.605409
vt 0.017364 0.603721
vt 0.805485 0.591983
vt 0.305485 0.005869
vt 0.005869 0.615022
vt 0.194515 0.865005
vt 0.270756 0.580487
vt 0.770756 0.017364
vt 0.270756 0.591983
vt 0.206010 0.864134
vt 0.203901 0.872975
vt 0.280142 0.589873
vt 0.780142 0.007978
vt 0.282252 0.580487
vt 0.782252 0.017364
vt 0.770756 0.005869
vt 0.194515 0.875435
vt 0.017364 0.865005
vt 0.593606 0.017364
vt 0.558877 0.017364
vt 0.593606 0.005869
vt 0.017364 0.875435
vt 0.007978 0.872975
vt 0.584220 0.007978
vt 0.568263 0.007978
vt 0.570372 0.017364
vt 0.582111 0.017364
vt 0.558877 0.005869
vt 0.005869 0.864134
vt 0.982636 0.017364
vt 0.406394 0.865005
vt 0.017364 0.017364
vt 0.982636 0.005869
vt 0.406394 0.875435
vt 0.992021 0.007978
vt 0.415780 0.872975
vt 0.007979 0.007978
vt 0.017364 0.005869
vt 0.417889 0.864134
vt 0.005869 0.017364
vt 0.994131 0.017364
vt 0.229244 0.865005
vt 0.805485 0.017364
vt 0.305485 0.580487
vt 0.805485 0.005869
vt 0.229244 0.875435
vt 0.219858 0.872975
vt 0.796099 0.007978
vt 0.296099 0.589873
vt 0.293990 0.580487
vt 0.793990 0.017364
vt 0.305485 0.591983
vt 0.217748 0.864134
vt 0.406394 0.615893
vt 0.770756 0.580487
vt 0.270756 0.017364
vt 0.770756 0.591983
vt 0.406394 0.603721
vt 0.415780 0.605409
vt 0.780142 0.589873
vt 0.280142 0.007978
vt 0.282252 0.017364
vt 0.782252 0.580487
vt 0.270756 0.005869
vt 0.417889 0.615022
vt 0.558877 0.580487
vt 0.593606 0.580487
vt 0.229244 0.615893
vt 0.570372 0.580487
vt 0.582111 0.580487
vt 0.568263 0.589873
vt 0.584220 0.589873
vt 0.219858 0.605409
vt 0.593606 0.591983
vt 0.229244 0.603721
vt 0.558877 0.591983
vt 0.217748 0.615022
s 1
usemtl MyMaterial
f 38/63/1 8/13/2 24/39/3 50/85/4
f 52/87/5 43/73/6 30/50/7 36/61/8
f 23/38/9 17/27/10 44/74/11 51/86/12
f 2/2/13 31/51/14 45/75/15 16/26/16
f 10/15/17 3/3/18 15/25/19 22/37/20
f 1/1/21 4/5/22 5/6/23 7/12/24
f 2/2/13 6/9/25 5/7/23 4/4/22
f 3/3/18 7/11/24 5/8/23 6/10/25
f 8/13/2 11/16/26 12/18/27 14/23/28
f 9/14/29 13/22/30 12/19/27 11/17/26
f 10/15/17 14/24/28 12/20/27 13/21/30
f 15/25/19 18/29/31 19/30/32 21/36/33
f 16/26/16 20/33/34 19/31/32 18/28/31
f 17/27/10 21/35/33 19/32/32 20/34/34
f 22/37/20 25/41/35 26/42/36 28/48/37
f 23/38/9 27/46/38 26/43/36 25/40/35
f 24/39/3 28/47/37 26/44/36 27/45/38
f 29/49/39 32/52/40 33/54/41 35/60/42
f 30/50/7 34/58/43 33/55/41 32/53/40
f 31/51/14 35/59/42 33/56/41 34/57/43
f 36/61/8 39/65/44 40/66/45 42/72/46
f 37/62/47 41/70/48 40/67/45 39/64/44
f 38/63/1 42/71/46 40/68/45 41/69/48
f 43/73/6 46/77/49 47/78/50 49/84/51
f 44/74/11 48/82/52 47/79/50 46/76/49
f 45/75/15 49/83/51 47/80/50 48/81/52
f 50/85/4 53/88/53 54/90/54 56/95/55
f 51/86/12 55/93/56 54/91/54 53/89/53
f 52/87/5 56/96/55 54/92/54 55/94/56
f 38/63/1 50/85/4 56/95/55 42/71/46
f 42/72/46 56/96/55 52/87/5 36/61/8
f 8/13/2 38/63/1 41/69/48 11/16/26
f 11/17/26 41/70/48 37/62/47 9/14/29
f 3/3/18 10/15/17 13/21/30 7/11/24
f 7/12/24 13/22/30 9/14/29 1/1/21
f 51/86/12 44/74/11 46/76/49 55/93/56
f 55/94/56 46/77/49 43/73/6 52/87/5
f 17/27/10 23/38/9 25/40/35 21/35/33
f 21/36/33 25/41/35 22/37/20 15/25/19
f 29/49/39 37/62/47 39/64/44 32/52/40
f 32/53/40 39/65/44 36/61/8 30/50/7
f 16/26/16 45/75/15 48/81/52 20/33/34
f 20/34/34 48/82/52 44/74/11 17/27/10
f 2/2/13 16/26/16 18/28/31 6/9/25
f 6/10/25 18/29/31 15/25/19 3/3/18
f 50/85/4 24/39/3 27/45/38 53/88/53
f 53/89/53 27/46/38 23/38/9 51/86/12
f 45/75/15 31/51/14 34/57/43 49/83/51
f 49/84/51 34/58/43 30/50/7 43/73/6
f 31/51/14 2/2/13 4/4/22 35/59/42
f 35/60/42 4/5/22 1/1/21 29/49/39
f 24/39/3 8/13/2 14/23/28 28/47/37
f 28/48/37 14/24/28 10/15/17 22/37/20
f 37/62/47 29/49/39 1/1/21 9/14/29
